FILE "Sports Superbike 2 (USA).bin" BINARY
  TRACK 01 MODE2/2352
    INDEX 01 00:00:00
  TRACK 02 AUDIO
    INDEX 00 05:55:33
    INDEX 01 05:57:33
  TRACK 03 AUDIO
    INDEX 00 12:37:03
    INDEX 01 12:39:03
  TRACK 04 AUDIO
    INDEX 00 17:03:39
    INDEX 01 17:05:39
